# xmcd CD database file
#
# Track frame offsets:
#	150
#	19840
#	39065
#	58502
#	83287
#	105300
#	127810
#	146957
#	169437
#	190422
#	213380
#	233575
#	255705
#	278777
#	291230
#	309600
#
# Disc length: 4404 seconds
#
# Revision: 3
# Processed by: cddbd v1.5.1PL2 Copyright (c) Steve Scherf et al.
# Submitted via: CDex 1.51
#
DISCID=db113210
DTITLE=DANCE?MAN - Greatest Hits
DYEAR=2002
DGENRE=Pop
TTITLE0=??Box?????
TTITLE1=??????
TTITLE2=??????????
TTITLE3=?????????
TTITLE4=??V???????
TTITLE5=??????
TTITLE6=???????????
TTITLE7=???????????????
TTITLE8=?????
TTITLE9=????
TTITLE10=???????????
TTITLE11=?????
TTITLE12=?????????
TTITLE13=??
TTITLE14=??????????
TTITLE15=??????????
EXTD=YEAR: 2002
EXTT0=
EXTT1=
EXTT2=
EXTT3=
EXTT4=
EXTT5=
EXTT6=
EXTT7=
EXTT8=
EXTT9=
EXTT10=
EXTT11=
EXTT12=
EXTT13=
EXTT14=
EXTT15=
PLAYORDER=
